<svg xmlns="http://www.w3.org/2000/svg" width="500" height="400" viewBox="0 0 500 400">
        <rect width="500" height="400" fill="#F3F4F6"/>
        <rect x="200" y="150" width="100" height="100" rx="8" fill="#3B82F6" opacity="0.1"/>
        <path d="M250 170 C235 170 225 180 225 195 L225 205 L220 205 L220 235 L280 235 L280 205 L275 205 L275 195 C275 180 265 170 250 170 Z M250 180 C260 180 265 185 265 195 L265 205 L235 205 L235 195 C235 185 240 180 250 180 Z" fill="#3B82F6"/>
        <circle cx="250" cy="220" r="5" fill="#3B82F6"/>
        <text x="250" y="330" text-anchor="middle" fill="#6B7280" font-family="Arial, sans-serif" font-size="16">Password Lock</text>
    </svg>