<svg xmlns="http://www.w3.org/2000/svg" viewBox="0 0 512 512" fill="none">
  <!-- Hintergrund Kreis -->
  <circle cx="256" cy="256" r="240" fill="#3B82F6"/>
  
  <!-- AI Buchstaben stilisiert -->
  <g fill="white">
    <!-- A -->
    <path d="M140 340 L200 180 L260 340 M160 280 L240 280" stroke="white" stroke-width="20" fill="none"/>
    
    <!-- I mit Punkt als Kreis (AI-Symbol) -->
    <rect x="300" y="220" width="20" height="120" fill="white"/>
    <circle cx="310" cy="190" r="15" fill="white"/>
  </g>
  
  <!-- Phone Icon in der Ecke -->
  <g transform="translate(320, 320)">
    <path d="M20 0 C20 0 18 2 18 4 L18 10 C18 12 20 14 22 14 L24 14 C26 14 28 12 28 10 L28 6 C28 6 28 4 26 2 L24 0 C24 0 22 -2 20 -2 C10 -2 0 8 0 18 C0 28 10 38 20 38 C22 38 24 36 24 36 L26 34 C28 32 28 30 28 30 L28 26 C28 24 26 22 24 22 L22 22 C20 22 18 24 18 26 L18 32 C18 34 20 36 20 36" 
          fill="white" 
          transform="scale(2.5)"/>
  </g>
</svg>